# xmcd CD database file
#
# Track frame offsets:
#	150
#	19782
#	40767
#	67490
#
# Disc length: 1158 seconds
#
# Revision: 1
# Processed by: cddbd v1.5.1PL2 Copyright (c) Steve Scherf et al.
# Submitted via: CDex 1.60beta1-cs1
#
DISCID=33048404
DTITLE=くるり - 赤い電車
DYEAR=2005
DGENRE=Techno
TTITLE0=赤い電車
TTITLE1=赤い電車 (Cubismo Grafico Mix)
TTITLE2=赤い電車 (Shin-Ski Remix - Galaxy Express 202 Ver)
TTITLE3=赤い電車 (Instrumental)
EXTD=YEAR: 2005
EXTT0=
EXTT1=
EXTT2=
EXTT3=
PLAYORDER=
